{"title":"Toy.Story.3.2010.DVDSCR.XVID.FEEL-FREE","uid":5722723,"size":1366672470,"categoryP":"video","categoryS":"movies","magnet":"?xt=urn:btih:d10ba37cb8950bf3d6008b7e1e36efe4a67d5bfa&amp;dn=Toy.Story.3.2010.DVDSCR.XVID.FEEL-FREE&amp;tr=udp%3A%2F%2Ftracker.openbittorrent.com%3A80&amp;tr=udp%3A%2F%2Fopen.demonii.com%3A1337&amp;tr=udp%3A%2F%2Ftracker.coppersurfer.tk%3A6969&amp;tr=udp%3A%2F%2Fexodus.desync.com%3A6969","seeders":0,"leechers":1,"uploader":"hiest","files":11,"time":1280339749,"description":"Genre:Animation | Adventure | Comedy | Family | Fantasy\nLanguage:English\nIMDb:http://www.imdb.com/title/tt0435761/\nSource Video:dvdscr.rus \nSource Audio:prism\nSample:yes\nSubtitles: ROMANA\n\nGeneral\nComplete name :Toy.Story.3.2010.DVDSCR.XVID.FEEL-FREE\nFormat : AVI\nFormat/Info : Audio Video Interleave\nFile size : 1.26 GiB\nDuration : 1h 41mn\nOverall bit rate : 1 771 Kbps\nVideo #0\nID : 0\nFormat : MPEG-4 Visual\nFormat profile : Simple@L3\nFormat settings, BVOP : Yes\nFormat settings, Matrix : Default (H.263)\nCodec ID : XVID\nCodec ID/Hint : XviD\nDuration : 1h 41mn\nBit rate : 1 501 Kbps\nWidth : 720 pixels\nHeight : 304 pixels\nDisplay aspect ratio : 2.35:1\nFrame rate : 29.970 fps\nResolution : 24 bits\nScan type : Progressive\nBits/(Pixel*Frame) : 0.229\nStream size : 1.07 GiB (85%)\nAudio #1\nID : 1\nFormat : MPEG Audio\nFormat version : Version 1\nFormat profile : Layer 3\nCodec ID : 55\nCodec ID/Hint : MP3\nDuration : 1h 41mn\nBit rate mode : Constant\nBit rate : 256 Kbps\nChannel(s) : 2 channels\nSampling rate : 48.0 KHz\nResolution : 16 bits\nStream size : 186 MiB (14%)\nAlignment : Aligned on interleaves\nInterleave, duration : 24 ms (0.72 video frame)\nWriting library : LAME3.97\nPlot:\nWoody, Buzz, and the rest of their toy-box friends are dumped in a day-care center after their owner, Andy, departs for college.","torrent":{"xt":"urn:btih:d10ba37cb8950bf3d6008b7e1e36efe4a67d5bfa","amp;dn":"Toy.Story.3.2010.DVDSCR.XVID.FEEL-FREE","amp;tr":["udp%3A%2F%2Ftracker.openbittorrent.com%3A80","udp%3A%2F%2Fopen.demonii.com%3A1337","udp%3A%2F%2Ftracker.coppersurfer.tk%3A6969","udp%3A%2F%2Fexodus.desync.com%3A6969"],"infoHash":"d10ba37cb8950bf3d6008b7e1e36efe4a67d5bfa","infoHashBuffer":{"type":"Buffer","data":[209,11,163,124,184,149,11,243,214,0,139,126,30,54,239,228,166,125,91,250]},"announce":[],"urlList":[]}}